<svg height="512" viewBox="0 0 128 128" width="512" xmlns="http://www.w3.org/2000/svg"><g><g fill="#09607d"><path d="m66.828 101.516-9.005 9a1.75 1.75 0 1 0 2.477 2.484l9-9.005a1.75 1.75 0 0 0 -2.475-2.474z"/><path d="m81.559 101.184-9.337 9.337a1.749 1.749 0 1 0 2.478 2.479l9.337-9.337a1.749 1.749 0 0 0 -2.474-2.474z"/><path d="m95.289 101.852-8.669 8.669a1.75 1.75 0 1 0 2.48 2.479l8.669-8.669a1.75 1.75 0 0 0 -2.475-2.474z"/><path d="m111.744 102.27a1.749 1.749 0 0 0 -2.475 0l-8.25 8.251a1.749 1.749 0 1 0 2.474 2.479l8.251-8.251a1.748 1.748 0 0 0 0-2.479z"/><path d="m64.44 118.393-6.617 6.617a1.75 1.75 0 1 0 2.475 2.474l6.617-6.617a1.75 1.75 0 1 0 -2.475-2.474z"/><path d="m78.839 118.393-6.617 6.617a1.749 1.749 0 1 0 2.474 2.474l6.617-6.617a1.749 1.749 0 0 0 -2.474-2.474z"/><path d="m93.237 118.393-6.617 6.617a1.75 1.75 0 1 0 2.475 2.474l6.617-6.617a1.75 1.75 0 1 0 -2.475-2.474z"/><path d="m107.636 118.393-6.617 6.617a1.749 1.749 0 1 0 2.474 2.474l6.617-6.617a1.749 1.749 0 0 0 -2.474-2.474z"/></g><path d="m51.748 105.14a10.124 10.124 0 1 1 0-20.247c.243 0 .481.019.719.036a15.528 15.528 0 0 1 24.984-7.05 19.895 19.895 0 0 1 25.994-11.085 51.721 51.721 0 1 0 -49.976 38.391c.584 0 1.162-.025 1.742-.045z" fill="#0d91bd"/><path d="m41.624 95.017a10.124 10.124 0 0 1 10.124-10.124c.243 0 .481.019.719.036a15.528 15.528 0 0 1 24.984-7.05 19.911 19.911 0 0 1 18.5-12.554c.331 0 .654.033.981.049a45.068 45.068 0 1 0 -55.11 31.626 10.167 10.167 0 0 1 -.198-1.983z" fill="#ebe1dc"/><g fill="#0d91bd"><path d="m53.469 26.455a1.749 1.749 0 0 1 -1.75-1.75v-8a1.75 1.75 0 1 1 3.5 0v8a1.75 1.75 0 0 1 -1.75 1.75z"/><path d="m73.806 34.879a1.75 1.75 0 0 1 -1.238-2.987l5.655-5.655a1.75 1.75 0 1 1 2.477 2.475l-5.654 5.654a1.743 1.743 0 0 1 -1.24.513z"/><path d="m27.477 81.207a1.75 1.75 0 0 1 -1.237-2.987l5.654-5.655a1.75 1.75 0 0 1 2.475 2.475l-5.654 5.654a1.745 1.745 0 0 1 -1.238.513z"/><path d="m90.226 55.216h-8a1.75 1.75 0 0 1 0-3.5h8a1.75 1.75 0 0 1 0 3.5z"/><path d="m24.708 55.216h-8a1.75 1.75 0 1 1 0-3.5h8a1.75 1.75 0 1 1 0 3.5z"/><path d="m33.132 34.879a1.745 1.745 0 0 1 -1.238-.513l-5.654-5.654a1.75 1.75 0 0 1 2.475-2.475l5.654 5.655a1.75 1.75 0 0 1 -1.237 2.987z"/></g><path d="m57.173 54.493-3.7-19.562-3.7 19.562a7.244 7.244 0 1 0 7.409 0z" fill="#ffb655"/><path d="m116.185 84.893c-.113 0-.223.013-.335.017a19.9 19.9 0 0 0 -38.4-7.031 15.527 15.527 0 0 0 -24.984 7.05c-.238-.017-.476-.036-.719-.036a10.124 10.124 0 1 0 0 20.247h64.437a10.124 10.124 0 1 0 0-20.247z" fill="#beebfa"/><path d="m107.851 86.788a1.749 1.749 0 0 1 -1.749-1.722 10.2 10.2 0 0 0 -10.152-9.991 1.75 1.75 0 0 1 0-3.5 13.716 13.716 0 0 1 13.65 13.435 1.751 1.751 0 0 1 -1.722 1.778z" fill="#9ee2f8"/><path d="m58.951 88.726a1.75 1.75 0 0 1 -1.67-2.278 10.443 10.443 0 0 1 10-7.321 1.75 1.75 0 0 1 0 3.5 6.954 6.954 0 0 0 -6.66 4.876 1.751 1.751 0 0 1 -1.67 1.223z" fill="#9ee2f8"/><path d="m51.748 84.893c.243 0 .481.019.719.036a15.421 15.421 0 0 1 1.339-3.029c-.113 0-.224.015-.337.015a28.317 28.317 0 0 1 -9.605-1.672l-6.339 6.338a36.429 36.429 0 0 0 6.175 2.312 10.1 10.1 0 0 1 8.048-4z" fill="#09607d"/></g></svg>